# xmcd
#
# Track frame offsets: 
#        150
#        12697
#        14881
#        38811
#        56246
#        73715
#        85704
#        103922
#        119113
#        136713
#        147175
#        174805
#
# Disc length: 2592 seconds
#
# Revision: 0
# Processed by: cddbd v1.5.2PL0 Copyright (c) Steve Scherf et al.
# Submitted via: ExactAudioCopy v0.99pb3
#
DISCID=ae0a1e0c
DTITLE=Guthrie Kennard - Cross Your Heart
DYEAR=2013
DGENRE=Country
TTITLE0=Baton Rouge
TTITLE1=Blue Ridge
TTITLE2=Cross Your Heart
TTITLE3=Deacon Dillon
TTITLE4=Forever Yours
TTITLE5=Lightnin' N Thunder
TTITLE6=Living In These Times
TTITLE7=Never Heard An Angel Cry
TTITLE8=I Am A Private
TTITLE9=Poet's Lament
TTITLE10=The Poet
TTITLE11=Trouble
EXTD=
EXTT0=
EXTT1=
EXTT2=
EXTT3=
EXTT4=
EXTT5=
EXTT6=
EXTT7=
EXTT8=
EXTT9=
EXTT10=
EXTT11=
PLAYORDER=
